<svg width="22" height="22" viewBox="0 0 22 22" fill="inherit" xmlns="http://www.w3.org/2000/svg">
<g clip-path="url(#clip0_2489_3147)">
    <path d="M5.99984 9.16669C4.9915 9.16669 4.1665 9.99169 4.1665 11C4.1665 12.0084 4.9915 12.8334 5.99984 12.8334C7.00817 12.8334 7.83317 12.0084 7.83317 11C7.83317 9.99169 7.00817 9.16669 5.99984 9.16669ZM16.9998 9.16669C15.9915 9.16669 15.1665 9.99169 15.1665 11C15.1665 12.0084 15.9915 12.8334 16.9998 12.8334C18.0082 12.8334 18.8332 12.0084 18.8332 11C18.8332 9.99169 18.0082 9.16669 16.9998 9.16669ZM11.4998 9.16669C10.4915 9.16669 9.6665 9.99169 9.6665 11C9.6665 12.0084 10.4915 12.8334 11.4998 12.8334C12.5082 12.8334 13.3332 12.0084 13.3332 11C13.3332 9.99169 12.5082 9.16669 11.4998 9.16669Z" fill="inherit"/>
</g>
<defs>
    <clipPath id="clip0_2489_3147">
        <rect width="22" height="22" fill="white"/>
    </clipPath>
</defs>
</svg>


