<svg width="299" height="40" viewBox="0 0 299 40" fill="none" xmlns="http://www.w3.org/2000/svg">
<path d="M0 36H26V40H0V36Z" fill="#EF3124"/>
<path d="M299 8.95996V30.4H295.774V16.72C295.774 16.16 295.788 15.5733 295.815 14.96C295.87 14.3466 295.924 13.7466 295.978 13.16H295.856L288.711 30.4H285.689L278.748 13.16H278.626C278.68 13.7466 278.707 14.3466 278.707 14.96C278.735 15.5733 278.748 16.2 278.748 16.84V30.4H275.523V8.95996H280.3L287.2 26.2L294.223 8.95996H299Z" fill="white"/>
<path d="M269.828 19.6401C269.828 21.4267 269.583 23.0134 269.093 24.4001C268.63 25.7601 267.949 26.9201 267.051 27.8801C266.18 28.8401 265.105 29.5734 263.826 30.0801C262.574 30.5601 261.172 30.8001 259.62 30.8001C258.178 30.8001 256.844 30.5601 255.619 30.0801C254.394 29.5734 253.332 28.8401 252.434 27.8801C251.536 26.9201 250.828 25.7601 250.311 24.4001C249.821 23.0134 249.576 21.4267 249.576 19.6401C249.576 17.2667 249.984 15.2667 250.801 13.6401C251.618 11.9867 252.788 10.7334 254.312 9.88006C255.837 9.00006 257.647 8.56006 259.743 8.56006C261.73 8.56006 263.472 9.00006 264.969 9.88006C266.493 10.7334 267.677 11.9867 268.521 13.6401C269.392 15.2667 269.828 17.2667 269.828 19.6401ZM253.292 19.6401C253.292 21.3201 253.509 22.7867 253.945 24.0401C254.408 25.2667 255.115 26.2134 256.068 26.8801C257.021 27.5467 258.232 27.8801 259.702 27.8801C261.172 27.8801 262.383 27.5467 263.336 26.8801C264.288 26.2134 264.983 25.2667 265.418 24.0401C265.881 22.7867 266.112 21.3201 266.112 19.6401C266.112 17.9334 265.881 16.4801 265.418 15.2801C264.955 14.0801 264.248 13.1601 263.295 12.5201C262.369 11.8534 261.158 11.5201 259.661 11.5201C257.429 11.5201 255.809 12.2401 254.802 13.6801C253.795 15.1201 253.292 17.1067 253.292 19.6401Z" fill="white"/>
<path d="M242.93 8.95996H246.85L237.5 19.28L247.626 30.4H243.461L233.58 19.52V30.4H229.987V8.95996H233.58V19.36L242.93 8.95996Z" fill="white"/>
<path d="M215.393 8.56006C217.271 8.56006 218.877 8.96006 220.211 9.76006C221.572 10.5601 222.606 11.6934 223.314 13.1601C224.049 14.6001 224.416 16.2934 224.416 18.2401V20.3601H209.432C209.486 22.7867 210.112 24.6401 211.31 25.9201C212.535 27.1734 214.236 27.8001 216.414 27.8001C217.802 27.8001 219.027 27.6801 220.088 27.4401C221.177 27.1734 222.293 26.8001 223.436 26.3201V29.4001C222.32 29.8801 221.218 30.2267 220.129 30.4401C219.04 30.6801 217.747 30.8001 216.25 30.8001C214.182 30.8001 212.344 30.3867 210.738 29.5601C209.159 28.7334 207.921 27.5067 207.023 25.8801C206.152 24.2267 205.716 22.2134 205.716 19.8401C205.716 17.4934 206.111 15.4801 206.9 13.8001C207.717 12.1201 208.846 10.8267 210.289 9.92006C211.759 9.01339 213.46 8.56006 215.393 8.56006ZM215.352 11.4401C213.637 11.4401 212.276 11.9867 211.269 13.0801C210.289 14.1467 209.704 15.6401 209.513 17.5601H220.66C220.66 16.3334 220.469 15.2667 220.088 14.3601C219.707 13.4534 219.122 12.7467 218.333 12.2401C217.57 11.7067 216.577 11.4401 215.352 11.4401Z" fill="white"/>
<path d="M199.995 30.4H196.361V11.88H189.91C189.638 15.2666 189.297 18.16 188.889 20.56C188.481 22.9333 187.964 24.8666 187.338 26.36C186.711 27.8533 185.963 28.9466 185.092 29.64C184.221 30.3333 183.2 30.68 182.03 30.68C181.676 30.68 181.322 30.6533 180.968 30.6C180.641 30.5733 180.369 30.5066 180.151 30.4V27.76C180.315 27.8133 180.492 27.8533 180.682 27.88C180.873 27.9066 181.063 27.92 181.254 27.92C181.853 27.92 182.397 27.68 182.887 27.2C183.377 26.72 183.813 25.9866 184.194 25C184.602 24.0133 184.969 22.7733 185.296 21.28C185.623 19.76 185.908 17.9733 186.153 15.92C186.398 13.8666 186.616 11.5466 186.807 8.95996H199.995V30.4Z" fill="white"/>
<path d="M168.742 8.56006C170.62 8.56006 172.226 8.96006 173.56 9.76006C174.921 10.5601 175.955 11.6934 176.663 13.1601C177.398 14.6001 177.765 16.2934 177.765 18.2401V20.3601H162.781C162.835 22.7867 163.461 24.6401 164.659 25.9201C165.884 27.1734 167.585 27.8001 169.763 27.8001C171.151 27.8001 172.376 27.6801 173.437 27.4401C174.526 27.1734 175.642 26.8001 176.786 26.3201V29.4001C175.669 29.8801 174.567 30.2267 173.478 30.4401C172.39 30.6801 171.097 30.8001 169.599 30.8001C167.531 30.8001 165.693 30.3867 164.087 29.5601C162.509 28.7334 161.27 27.5067 160.372 25.8801C159.501 24.2267 159.065 22.2134 159.065 19.8401C159.065 17.4934 159.46 15.4801 160.249 13.8001C161.066 12.1201 162.196 10.8267 163.638 9.92006C165.108 9.01339 166.809 8.56006 168.742 8.56006ZM168.701 11.4401C166.986 11.4401 165.625 11.9867 164.618 13.0801C163.638 14.1467 163.053 15.6401 162.863 17.5601H174.009C174.009 16.3334 173.819 15.2667 173.437 14.3601C173.056 13.4534 172.471 12.7467 171.682 12.2401C170.92 11.7067 169.926 11.4401 168.701 11.4401Z" fill="white"/>
<path d="M150.191 30.4001H146.517V5.00009H137.412V1.84009H159.255V5.00009H150.191V30.4001Z" fill="white"/>
<path d="M115.269 8.6001C117.936 8.6001 119.91 9.17343 121.189 10.3201C122.468 11.4668 123.108 13.2934 123.108 15.8001V30.4001H120.495L119.801 27.3601H119.638C119.011 28.1334 118.358 28.7868 117.678 29.3201C117.024 29.8268 116.262 30.2001 115.391 30.4401C114.547 30.6801 113.513 30.8001 112.288 30.8001C110.982 30.8001 109.798 30.5734 108.736 30.1201C107.702 29.6668 106.885 28.9734 106.286 28.0401C105.687 27.0801 105.388 25.8801 105.388 24.4401C105.388 22.3068 106.245 20.6668 107.96 19.5201C109.675 18.3468 112.315 17.7068 115.881 17.6001L119.597 17.4801V16.2001C119.597 14.4134 119.202 13.1734 118.413 12.4801C117.623 11.7868 116.507 11.4401 115.065 11.4401C113.921 11.4401 112.833 11.6134 111.798 11.9601C110.764 12.2801 109.798 12.6534 108.899 13.0801L107.797 10.4401C108.75 9.93343 109.879 9.50676 111.186 9.1601C112.492 8.78676 113.853 8.6001 115.269 8.6001ZM116.33 20.0401C113.608 20.1468 111.717 20.5734 110.655 21.3201C109.621 22.0668 109.103 23.1201 109.103 24.4801C109.103 25.6801 109.471 26.5601 110.206 27.1201C110.968 27.6801 111.934 27.9601 113.105 27.9601C114.956 27.9601 116.494 27.4668 117.719 26.4801C118.943 25.4668 119.556 23.9201 119.556 21.8401V19.9201L116.33 20.0401Z" fill="#EF3124"/>
<path d="M90.4602 8.64C92.6378 8.82667 94.5296 9.38667 96.1356 10.32C97.7688 11.2533 99.0345 12.5067 99.9327 14.08C100.831 15.6533 101.28 17.52 101.28 19.68C101.28 21.84 100.845 23.72 99.9736 25.32C99.1025 26.8933 97.864 28.1467 96.2581 29.08C94.6521 29.9867 92.7195 30.5333 90.4602 30.72V40H86.9489V30.72C84.7985 30.5333 82.9067 29.9867 81.2735 29.08C79.6403 28.1467 78.3746 26.8933 77.4764 25.32C76.5781 23.72 76.129 21.84 76.129 19.68C76.129 17.4933 76.5645 15.6133 77.4355 14.04C78.3066 12.44 79.5587 11.1867 81.1919 10.28C82.8251 9.34667 84.7849 8.8 87.0714 8.64V0H90.4602V8.64ZM87.0714 11.56C85.411 11.72 84.05 12.1333 82.9884 12.8C81.9268 13.4667 81.1374 14.3733 80.6203 15.52C80.1303 16.6667 79.8853 18.0533 79.8853 19.68C79.8853 21.28 80.1303 22.6667 80.6203 23.84C81.1374 24.9867 81.9268 25.9067 82.9884 26.6C84.05 27.2667 85.411 27.68 87.0714 27.84V11.56ZM90.4602 27.84C92.0934 27.6533 93.4272 27.2267 94.4616 26.56C95.5231 25.8933 96.2989 24.9867 96.7888 23.84C97.306 22.6667 97.5646 21.28 97.5646 19.68C97.5646 18.08 97.306 16.7067 96.7888 15.56C96.2717 14.4133 95.4823 13.5067 94.4207 12.84C93.3864 12.1733 92.0662 11.76 90.4602 11.6V27.84Z" fill="#EF3124"/>
<path d="M63.2376 17.76C65.143 17.76 66.7217 17.9866 67.9738 18.44C69.226 18.8933 70.165 19.5733 70.7911 20.48C71.4444 21.36 71.771 22.48 71.771 23.84C71.771 25.1733 71.458 26.3333 70.8319 27.32C70.2331 28.3066 69.294 29.0666 68.0147 29.6C66.7353 30.1333 65.0885 30.4 63.0743 30.4H53.1526V8.95996H56.7457V17.76H63.2376ZM68.178 24.04C68.178 22.7333 67.7016 21.8533 66.749 21.4C65.8235 20.92 64.5169 20.68 62.8293 20.68H56.7457V27.56H62.911C64.4353 27.56 65.6874 27.2933 66.6673 26.76C67.6744 26.2266 68.178 25.32 68.178 24.04Z" fill="#EF3124"/>
<path d="M46.2059 30.4H42.5721V11.88H36.1209C35.8488 15.2666 35.5085 18.16 35.1002 20.56C34.6919 22.9333 34.1747 24.8666 33.5487 26.36C32.9226 27.8533 32.1741 28.9466 31.303 29.64C30.432 30.3333 29.4113 30.68 28.2408 30.68C27.887 30.68 27.5331 30.6533 27.1792 30.6C26.8526 30.5733 26.5804 30.5066 26.3626 30.4V27.76C26.526 27.8133 26.7029 27.8533 26.8934 27.88C27.084 27.9066 27.2745 27.92 27.465 27.92C28.0639 27.92 28.6083 27.68 29.0982 27.2C29.5882 26.72 30.0237 25.9866 30.4048 25C30.8131 24.0133 31.1806 22.7733 31.5072 21.28C31.8338 19.76 32.1196 17.9733 32.3646 15.92C32.6096 13.8666 32.8273 11.5466 33.0179 8.95996H46.2059V30.4Z" fill="#EF3124"/>
<path d="M22.2522 30.4L18.7409 21.56H7.18604L3.71551 30.4H0L11.3915 1.71997H14.6987L26.0494 30.4H22.2522ZM14.3721 9.71997C14.2904 9.50664 14.1543 9.11997 13.9638 8.55997C13.7732 7.99997 13.5827 7.42664 13.3922 6.83997C13.2288 6.22664 13.0927 5.75997 12.9839 5.43997C12.8478 5.9733 12.6981 6.51997 12.5347 7.07997C12.3986 7.6133 12.2489 8.10664 12.0856 8.55997C11.9495 9.0133 11.827 9.39997 11.7181 9.71997L8.41093 18.36H17.6385L14.3721 9.71997Z" fill="#EF3124"/>
</svg>
