<svg width="22" height="22" viewBox="0 0 22 22" fill="inherit" xmlns="http://www.w3.org/2000/svg">
<g clip-path="url(#clip0_2616_1057)">
    <path d="M11 5.40841C12.0633 5.40841 12.925 6.27008 12.925 7.33341C12.925 8.39675 12.0633 9.25842 11 9.25842C9.93663 9.25842 9.07496 8.39675 9.07496 7.33341C9.07496 6.27008 9.93663 5.40841 11 5.40841ZM11 13.6584C13.7225 13.6584 16.5916 14.9967 16.5916 15.5834V16.5917H5.40829V15.5834C5.40829 14.9967 8.27746 13.6584 11 13.6584ZM11 3.66675C8.97413 3.66675 7.33329 5.30758 7.33329 7.33341C7.33329 9.35925 8.97413 11.0001 11 11.0001C13.0258 11.0001 14.6666 9.35925 14.6666 7.33341C14.6666 5.30758 13.0258 3.66675 11 3.66675ZM11 11.9167C8.55246 11.9167 3.66663 13.1451 3.66663 15.5834V18.3334H18.3333V15.5834C18.3333 13.1451 13.4475 11.9167 11 11.9167Z" fill="inherit"/>
</g>
<defs>
    <clipPath id="clip0_2616_1057">
        <rect width="22" height="22" fill="white"/>
    </clipPath>
</defs>
</svg>
